<svg width="930" height="819" viewBox="0 0 930 819" fill="none" xmlns="http://www.w3.org/2000/svg">
<g clip-path="url(#clip0)">
<path opacity="0.1" d="M753.62 774.77C819.276 774.77 872.5 765.614 872.5 754.32C872.5 743.026 819.276 733.87 753.62 733.87C687.964 733.87 634.74 743.026 634.74 754.32C634.74 765.614 687.964 774.77 753.62 774.77Z" fill="#89B340"/>
<path opacity="0.1" d="M393.68 746.77C490.882 746.77 569.68 741.196 569.68 734.32C569.68 727.444 490.882 721.87 393.68 721.87C296.478 721.87 217.68 727.444 217.68 734.32C217.68 741.196 296.478 746.77 393.68 746.77Z" fill="#89B340"/>
<path opacity="0.1" d="M287.63 32.0098C319.15 3.91975 368.63 -1.80025 413.63 0.439754C555.07 7.43975 682.74 75.7497 793.18 152.98C833.18 180.98 872.52 211.07 898.47 249.58C951.3 327.96 935.63 436.58 862.17 501.11C837.17 523.11 806.88 539.92 775.77 554.85C720.47 581.4 660.77 602.71 598.03 608.77C553.27 613.1 507.95 609.58 463.45 603.55C339.13 586.69 217.1 549.4 114.84 485.61C69.9801 457.61 27.6901 422.85 9.20011 377.61C-9.28989 332.37 2.55011 274.99 48.3501 248.2C67.3501 237.12 89.9501 232.12 112.13 227.42C144.77 220.5 177.94 213.68 207.4 199.62C237.84 185.08 273.84 156.99 267.84 124.85C261.34 90.3397 256.15 60.0598 287.63 32.0098Z" fill="#89B340"/>
<g opacity="0.1">
<path opacity="0.1" d="M406.65 646.341C410.49 652.871 416.51 657.081 423.29 657.081C434.87 657.081 444.29 644.811 444.29 629.661C444.29 614.511 434.84 602.341 423.29 602.341C417.84 602.341 412.87 605.061 409.14 609.531C407.726 611.241 406.527 613.118 405.57 615.121L405.37 616.311C405.37 616.311 400.9 620.131 394.81 616.621V527.801H308.09C307.389 526.882 306.926 525.804 306.743 524.663C306.559 523.521 306.662 522.353 307.04 521.261C307.688 519.23 309.086 517.524 310.95 516.491C317.48 512.651 321.7 506.631 321.7 499.851C321.7 488.271 309.42 478.851 294.28 478.851C279.14 478.851 266.86 488.241 266.86 499.851C266.86 505.301 269.59 510.281 274.06 514.011C275.768 515.42 277.642 516.615 279.64 517.571L279.76 517.771C281.071 519.04 281.941 520.696 282.242 522.496C282.543 524.295 282.258 526.144 281.43 527.771H242.32V692.251C242.32 702.594 246.429 712.514 253.743 719.828C261.057 727.142 270.977 731.251 281.32 731.251H394.84V643.971C395.765 643.092 396.915 642.487 398.163 642.223C399.411 641.958 400.708 642.044 401.91 642.471C403.926 643.108 405.622 644.493 406.65 646.341V646.341Z" fill="#3A3768"/>
<path opacity="0.1" d="M260.7 524.34H274.28C270.978 521.803 268.298 518.548 266.442 514.821C264.587 511.094 263.604 506.993 263.57 502.83C263.57 487.24 277.17 474.61 293.94 474.61C310.71 474.61 324.32 487.24 324.32 502.83C324.286 506.993 323.303 511.094 321.448 514.821C319.592 518.548 316.912 521.803 313.61 524.34H395.01V436.71C395.941 435.84 397.091 435.241 398.337 434.977C399.582 434.713 400.877 434.793 402.08 435.21C404.116 435.853 405.827 437.252 406.86 439.12C410.69 445.65 416.71 449.86 423.5 449.86C435.08 449.86 444.5 437.59 444.5 422.45C444.5 407.31 435.12 395.03 423.5 395.03C418.04 395.03 413.07 397.76 409.34 402.22C407.93 403.933 406.731 405.81 405.77 407.81L405.58 407.93C404.24 409.329 402.463 410.231 400.542 410.487C398.621 410.744 396.67 410.339 395.01 409.34V320.54H311.52C310.819 319.621 310.356 318.543 310.173 317.402C309.989 316.261 310.092 315.092 310.47 314C311.113 311.967 312.513 310.26 314.38 309.23C320.91 305.4 325.12 299.37 325.12 292.59C325.12 281.01 312.85 271.59 297.71 271.59C282.57 271.59 270.29 280.98 270.29 292.59C270.29 298.05 273.02 303.02 277.48 306.75C279.193 308.16 281.07 309.359 283.07 310.32L283.19 310.51C284.502 311.779 285.371 313.435 285.672 315.235C285.973 317.035 285.688 318.884 284.86 320.51H260.7V316.01H278.54C275.245 313.477 272.569 310.228 270.716 306.508C268.862 302.788 267.879 298.696 267.84 294.54C267.84 278.95 281.44 266.31 298.22 266.31C315 266.31 328.59 278.95 328.59 294.54C328.55 298.705 327.561 302.806 325.699 306.532C323.836 310.257 321.148 313.509 317.84 316.04H394.94V227.34C395.868 226.463 397.02 225.859 398.269 225.594C399.518 225.329 400.816 225.414 402.02 225.84C404.051 226.486 405.758 227.885 406.79 229.75C410.62 236.28 416.65 240.49 423.43 240.49C435.01 240.49 444.43 228.22 444.43 213.07C444.43 197.92 435.05 185.66 423.43 185.66C417.97 185.66 413 188.38 409.27 192.85C407.856 194.56 406.657 196.437 405.7 198.44L405.51 199.63C405.51 199.63 401.04 203.45 394.94 199.94V117.21H281.47C271.127 117.21 261.207 121.319 253.893 128.633C246.579 135.947 242.47 145.867 242.47 156.21V198.43H241.88C241.273 198.43 240.69 198.671 240.261 199.101C239.831 199.53 239.59 200.113 239.59 200.72V220.72C239.593 221.327 239.835 221.907 240.264 222.336C240.693 222.765 241.274 223.007 241.88 223.01H242.47V243.43H241.7C241.092 243.43 240.508 243.671 240.077 244.1C239.646 244.529 239.403 245.112 239.4 245.72V283.91C239.403 284.518 239.646 285.101 240.077 285.53C240.508 285.959 241.092 286.2 241.7 286.2H242.47V301.2H241.84C241.233 301.2 240.65 301.441 240.221 301.871C239.791 302.3 239.55 302.883 239.55 303.49V315.79H239.05V341.71C239.049 342.011 239.107 342.309 239.222 342.588C239.336 342.866 239.505 343.119 239.718 343.332C239.931 343.545 240.184 343.714 240.462 343.828C240.741 343.943 241.039 344.001 241.34 344H242.02V524.34H260.7Z" fill="#3A3768"/>
<path opacity="0.1" d="M557.43 258.84C557.43 258.232 557.189 257.648 556.76 257.217C556.331 256.786 555.748 256.543 555.14 256.54H553.76V254.03H553.01V154.28C553.011 149.355 552.042 144.478 550.158 139.928C548.274 135.378 545.512 131.243 542.029 127.761C538.547 124.278 534.412 121.516 529.862 119.632C525.312 117.748 520.435 116.779 515.51 116.78H403.01V192.78C405.58 189.37 408.902 186.599 412.718 184.682C416.533 182.765 420.74 181.755 425.01 181.73C440.72 181.73 453.46 195.34 453.46 212.12C453.46 228.9 440.72 242.51 425.01 242.51C420.74 242.487 416.533 241.477 412.716 239.561C408.9 237.644 405.579 234.872 403.01 231.46V315.79H494.01C490.713 313.247 488.037 309.987 486.185 306.257C484.333 302.527 483.353 298.425 483.32 294.26C483.32 278.65 496.89 266 513.64 266C521.085 265.959 528.303 268.56 534.01 273.34C537.143 275.843 539.672 279.019 541.41 282.633C543.148 286.247 544.051 290.205 544.051 294.215C544.051 298.225 543.148 302.184 541.41 305.797C539.672 309.411 537.143 312.587 534.01 315.09V315.76H553.76V315.69H557.43V258.84Z" fill="#3A3768"/>
<path opacity="0.1" d="M527.22 519.851V509.851C527.632 509.249 528.01 508.625 528.35 507.981C529.689 505.544 530.398 502.811 530.41 500.031C530.407 498.177 530.089 496.338 529.47 494.591C528.924 493.034 528.167 491.561 527.22 490.211V490.211C522.61 483.581 513.5 479.061 503 479.061C487.85 479.061 475.58 488.451 475.58 500.061C475.58 505.521 478.31 510.491 482.77 514.221C484.483 515.631 486.36 516.829 488.36 517.791L488.48 517.981C489.79 519.25 490.659 520.906 490.96 522.706C491.26 524.505 490.976 526.354 490.15 527.981H401.93V609.981C404.464 606.591 407.747 603.834 411.524 601.926C415.301 600.017 419.469 599.009 423.7 598.981C439.29 598.981 451.92 612.581 451.92 629.351C451.92 646.121 439.29 659.731 423.7 659.731C419.469 659.702 415.301 658.694 411.524 656.786C407.747 654.877 404.464 652.12 401.93 648.731V714.921H503.16C509.531 714.921 515.642 712.394 520.152 707.895C524.662 703.396 527.204 697.291 527.22 690.921V528.011V690.811C527.22 697.192 524.685 703.311 520.173 707.824C515.661 712.336 509.541 714.871 503.16 714.871H401.93V730.871H506.93C517.274 730.871 527.193 726.762 534.507 719.448C541.821 712.134 545.93 702.214 545.93 691.871V528.011V523.711H527.22V519.851Z" fill="#3A3768"/>
</g>
<path d="M286.09 711.2C279.709 711.2 273.589 708.665 269.077 704.153C264.565 699.641 262.03 693.521 262.03 687.14V523.8H243.32V688.25C243.32 698.593 247.429 708.513 254.743 715.827C262.057 723.141 271.977 727.25 282.32 727.25H395.84V711.25L286.09 711.2Z" fill="#3A3768"/>
<path d="M402.84 638.47C404.874 639.11 406.583 640.511 407.61 642.38C411.45 648.91 417.47 653.12 424.25 653.12C435.83 653.12 445.25 640.85 445.25 625.7C445.25 610.55 435.84 598.34 424.29 598.34C418.84 598.34 413.87 601.06 410.14 605.53C408.726 607.24 407.527 609.117 406.57 611.12L406.37 612.31C406.37 612.31 401.9 616.13 395.81 612.62V523.8H309.09C308.389 522.881 307.926 521.803 307.743 520.662C307.559 519.52 307.662 518.352 308.04 517.26C308.688 515.229 310.086 513.523 311.95 512.49C318.48 508.65 322.7 502.63 322.7 495.85C322.7 484.27 310.42 474.85 295.28 474.85C280.14 474.85 267.86 484.24 267.86 495.85C267.86 501.3 270.59 506.28 275.06 510.01C276.768 511.419 278.642 512.614 280.64 513.57L280.76 513.77C282.071 515.039 282.941 516.695 283.242 518.495C283.542 520.294 283.258 522.143 282.43 523.77H262.03V687.14C262.03 693.521 264.565 699.64 269.077 704.153C273.589 708.665 279.709 711.2 286.09 711.2H395.84V639.97C396.759 639.104 397.897 638.507 399.131 638.242C400.365 637.978 401.648 638.057 402.84 638.47Z" fill="#89B340"/>
<path d="M242.99 311.71H240.02V316.55H242.99V311.71Z" fill="#3A3768"/>
<path d="M261.7 311.71H245.47V316.55H261.7V311.71Z" fill="#3A3768"/>
<path d="M245.47 311.71H242.99V316.55H245.47V311.71Z" fill="#3A3768"/>
<path d="M242.31 339.92H242.99V316.54H239.99V337.63C239.989 337.934 240.048 338.235 240.164 338.515C240.281 338.795 240.452 339.05 240.668 339.263C240.884 339.476 241.141 339.644 241.423 339.757C241.705 339.87 242.006 339.925 242.31 339.92Z" fill="#3A3768"/>
<path d="M261.7 316.54H245.47V337.63C245.47 337.932 245.41 338.23 245.295 338.509C245.179 338.787 245.009 339.04 244.796 339.253C244.582 339.466 244.328 339.634 244.049 339.749C243.77 339.863 243.472 339.921 243.17 339.92H242.99V520.34H261.7V316.54Z" fill="#3A3768"/>
<path d="M242.99 339.92H243.17C243.472 339.921 243.77 339.863 244.049 339.749C244.328 339.634 244.582 339.466 244.796 339.253C245.009 339.04 245.179 338.787 245.295 338.509C245.41 338.23 245.47 337.932 245.47 337.63V316.54H242.99V339.92Z" fill="#3A3768"/>
<path d="M264.57 498.79C264.57 483.2 278.17 470.57 294.94 470.57C311.71 470.57 325.32 483.2 325.32 498.79C325.292 502.96 324.312 507.069 322.456 510.803C320.6 514.537 317.917 517.799 314.61 520.34H396.01V432.71C396.94 431.84 398.091 431.241 399.336 430.977C400.582 430.713 401.877 430.793 403.08 431.21C405.115 431.853 406.826 433.252 407.86 435.12C411.69 441.65 417.71 445.86 424.5 445.86C436.08 445.86 445.5 433.59 445.5 418.45C445.5 403.31 436.12 391.03 424.5 391.03C419.04 391.03 414.07 393.76 410.34 398.22C408.93 399.933 407.731 401.81 406.77 403.81L406.58 403.93C405.239 405.329 403.463 406.231 401.542 406.487C399.621 406.744 397.67 406.339 396.01 405.34V316.54H312.52C311.819 315.621 311.356 314.543 311.172 313.402C310.989 312.261 311.091 311.092 311.47 310C312.113 307.967 313.513 306.259 315.38 305.23C321.91 301.4 326.12 295.37 326.12 288.59C326.12 277.01 313.85 267.59 298.71 267.59C283.57 267.59 271.29 276.98 271.29 288.59C271.29 294.05 274.02 299.02 278.48 302.75C280.193 304.16 282.07 305.359 284.07 306.32L284.19 306.51C285.501 307.779 286.371 309.435 286.672 311.235C286.972 313.035 286.688 314.884 285.86 316.51H261.7V520.34H275.28C271.973 517.799 269.289 514.537 267.434 510.803C265.578 507.069 264.598 502.96 264.57 498.79V498.79Z" fill="#89B340"/>
<path d="M245.97 299.08C245.97 298.778 245.91 298.48 245.795 298.201C245.679 297.923 245.509 297.67 245.296 297.457C245.082 297.244 244.828 297.076 244.549 296.961C244.27 296.847 243.972 296.789 243.67 296.79H243.49V311.71H245.97V299.08Z" fill="#3A3768"/>
<path d="M243.4 194.41H242.9C242.599 194.41 242.301 194.469 242.024 194.584C241.746 194.7 241.493 194.868 241.281 195.081C241.068 195.294 240.899 195.546 240.784 195.824C240.669 196.102 240.61 196.399 240.61 196.7V216.7C240.612 217.307 240.855 217.888 241.284 218.317C241.712 218.745 242.293 218.988 242.9 218.99H243.49V194.42L243.4 194.41Z" fill="#3A3768"/>
<path d="M242.72 239.39C242.112 239.39 241.528 239.631 241.097 240.06C240.666 240.489 240.423 241.071 240.42 241.68V279.87C240.423 280.478 240.666 281.06 241.097 281.49C241.528 281.919 242.112 282.16 242.72 282.16H243.49V239.39H242.72Z" fill="#3A3768"/>
<path d="M243.49 297.12H242.84C242.233 297.12 241.65 297.361 241.221 297.791C240.791 298.22 240.55 298.803 240.55 299.41V312.04H243.55L243.49 297.12Z" fill="#3A3768"/>
<path d="M243.49 152.2V194.42C244.081 194.441 244.64 194.69 245.051 195.115C245.461 195.541 245.69 196.109 245.69 196.7V216.7C245.688 217.29 245.458 217.857 245.048 218.282C244.638 218.707 244.08 218.957 243.49 218.98V239.4H243.84C244.141 239.4 244.438 239.459 244.716 239.574C244.994 239.689 245.247 239.858 245.459 240.071C245.672 240.283 245.841 240.536 245.956 240.814C246.071 241.091 246.13 241.389 246.13 241.69V279.88C246.13 280.487 245.889 281.07 245.459 281.499C245.03 281.929 244.447 282.17 243.84 282.17H243.47V297.17H243.65C244.258 297.17 244.842 297.411 245.273 297.84C245.704 298.269 245.947 298.852 245.95 299.46V312.04H262.18V153.34C262.18 146.961 264.713 140.842 269.223 136.331C273.733 131.819 279.851 129.283 286.23 129.28H318.84V133.46C318.84 138.714 320.927 143.753 324.642 147.468C328.357 151.183 333.396 153.27 338.65 153.27H396.02V140.19H369.61C368.589 140.185 367.61 139.778 366.886 139.058C366.162 138.337 365.75 137.361 365.74 136.34V135.5C365.743 134.474 366.151 133.492 366.876 132.766C367.602 132.041 368.584 131.633 369.61 131.63H395.97V113.21H282.47C272.132 113.215 262.219 117.325 254.909 124.636C247.6 131.948 243.493 141.862 243.49 152.2V152.2Z" fill="#3A3768"/>
<path d="M245.69 216.69V196.69C245.69 196.099 245.461 195.531 245.051 195.106C244.64 194.68 244.081 194.431 243.49 194.41V218.96C244.078 218.937 244.635 218.688 245.044 218.266C245.454 217.843 245.685 217.279 245.69 216.69Z" fill="#3A3768"/>
<path d="M246.15 279.87V241.68C246.15 241.379 246.091 241.081 245.976 240.803C245.861 240.525 245.692 240.273 245.479 240.06C245.267 239.848 245.014 239.679 244.736 239.564C244.458 239.449 244.161 239.39 243.86 239.39H243.49V282.16H243.84C244.142 282.162 244.442 282.105 244.722 281.991C245.003 281.877 245.257 281.709 245.472 281.496C245.687 281.283 245.857 281.03 245.974 280.751C246.09 280.471 246.15 280.172 246.15 279.87V279.87Z" fill="#3A3768"/>
<path d="M268.84 290.54C268.84 274.95 282.44 262.31 299.22 262.31C316 262.31 329.59 274.95 329.59 290.54C329.55 294.705 328.561 298.806 326.699 302.532C324.836 306.257 322.148 309.509 318.84 312.04H395.94V223.34C396.868 222.463 398.02 221.859 399.269 221.594C400.518 221.329 401.816 221.415 403.02 221.84C405.051 222.486 406.758 223.885 407.79 225.75C411.62 232.28 417.65 236.49 424.43 236.49C436.01 236.49 445.43 224.22 445.43 209.07C445.43 193.92 436.05 181.66 424.43 181.66C418.97 181.66 414 184.38 410.27 188.85C408.855 190.56 407.657 192.437 406.7 194.44L406.51 195.63C406.51 195.63 402.04 199.45 395.94 195.94V153.24H338.6C333.355 153.227 328.329 151.134 324.625 147.42C320.92 143.706 318.84 138.675 318.84 133.43V129.25H286.25C283.089 129.251 279.959 129.876 277.039 131.087C274.119 132.299 271.466 134.074 269.233 136.311C266.999 138.548 265.229 141.204 264.022 144.126C262.815 147.048 262.196 150.179 262.2 153.34V312.04H279.54C276.241 309.504 273.563 306.25 271.709 302.525C269.855 298.799 268.874 294.701 268.84 290.54V290.54Z" fill="#89B340"/>
<path d="M369.61 131.6C368.584 131.602 367.602 132.011 366.876 132.736C366.151 133.461 365.743 134.444 365.74 135.47V136.34C365.743 137.366 366.151 138.35 366.876 139.077C367.601 139.804 368.583 140.214 369.61 140.22H395.97V131.63L369.61 131.6Z" fill="#E6E8EC"/>
<path d="M548.01 252.42V311.78H554.76V250.03H551.11C549.4 250.03 548.01 251.1 548.01 252.42Z" fill="#3A3768"/>
<path d="M412.01 112.78H404.01V130.78H412.01V112.78Z" fill="#3A3768"/>
<path d="M412.01 139.78H404.01V152.78H412.01V139.78Z" fill="#3A3768"/>
<path d="M412.01 130.78H404.01V139.78H412.01V130.78Z" fill="#E6E8EC"/>
<path d="M556.14 252.54H554.26V311.71H558.43V254.84C558.43 254.232 558.189 253.648 557.76 253.217C557.331 252.786 556.748 252.543 556.14 252.54V252.54Z" fill="#3A3768"/>
<path d="M412 130.78C414.13 131.26 416 135.14 416 135.14V135.98C416 135.98 414.12 139.85 412 139.78V152.78H457.19C462.445 152.778 467.484 150.688 471.198 146.972C474.913 143.255 477 138.215 477 132.96V128.78H511C517.37 128.794 523.474 131.333 527.974 135.842C532.473 140.351 535 146.46 535 152.83V269.34C538.133 271.843 540.662 275.019 542.4 278.633C544.138 282.247 545.041 286.205 545.041 290.215C545.041 294.225 544.138 298.184 542.4 301.797C540.662 305.411 538.133 308.587 535 311.09V311.76H549V253.07C549 253.031 549.008 252.993 549.023 252.957C549.038 252.921 549.06 252.889 549.088 252.862C549.116 252.835 549.15 252.813 549.186 252.799C549.222 252.785 549.261 252.779 549.3 252.78H554V150.28C554.001 145.355 553.032 140.478 551.148 135.928C549.264 131.378 546.502 127.243 543.019 123.761C539.537 120.278 535.403 117.516 530.852 115.632C526.302 113.748 521.425 112.779 516.5 112.78H411.01V130.78H412ZM427.14 130.69C428.103 130.69 429.045 130.976 429.846 131.511C430.647 132.046 431.271 132.807 431.639 133.697C432.008 134.586 432.104 135.566 431.916 136.51C431.729 137.455 431.265 138.323 430.584 139.004C429.903 139.685 429.035 140.149 428.09 140.337C427.145 140.525 426.166 140.428 425.276 140.06C424.386 139.691 423.626 139.067 423.091 138.266C422.556 137.465 422.27 136.523 422.27 135.56C422.27 134.269 422.783 133.03 423.696 132.117C424.61 131.203 425.848 130.69 427.14 130.69Z" fill="#3A3768"/>
<path d="M425.96 177.72C441.67 177.72 454.41 191.33 454.41 208.11C454.41 224.89 441.67 238.5 425.96 238.5C421.69 238.477 417.482 237.467 413.666 235.551C409.85 233.634 406.529 230.862 403.96 227.45V311.78H494.96C491.663 309.237 488.987 305.977 487.135 302.247C485.283 298.517 484.303 294.415 484.27 290.25C484.27 274.64 497.84 261.99 514.59 261.99C522.053 261.94 529.291 264.545 535.01 269.34V152.83C535.01 146.46 532.483 140.351 527.984 135.842C523.484 131.333 517.38 128.794 511.01 128.78H477.01V132.96C477.01 138.215 474.923 143.255 471.208 146.972C467.494 150.688 462.455 152.778 457.2 152.78H404.01V188.78C406.573 185.375 409.887 182.606 413.694 180.688C417.5 178.77 421.698 177.754 425.96 177.72V177.72Z" fill="#89B340"/>
<path d="M412 139.78C413.027 139.782 414.015 139.388 414.76 138.68C415.505 137.973 415.949 137.006 416 135.98V135.14C415.884 134.082 415.434 133.089 414.714 132.305C413.995 131.521 413.044 130.987 412 130.78H411V139.78H412Z" fill="#E6E8EC"/>
<path d="M427.921 140.346C430.576 139.915 432.378 137.413 431.947 134.758C431.516 132.103 429.015 130.3 426.36 130.731C423.705 131.162 421.902 133.664 422.333 136.319C422.764 138.974 425.266 140.777 427.921 140.346Z" fill="#E6E8EC"/>
<path d="M528.22 515.85V505.85C530.293 502.995 531.41 499.558 531.41 496.03C531.41 492.502 530.293 489.064 528.22 486.21V515.85Z" fill="#3A3768"/>
<path d="M546.93 519.71H528.22V524.01H546.93V519.71Z" fill="#3A3768"/>
<path d="M520.67 512.69C518.805 513.722 517.406 515.428 516.76 517.46C516.38 518.553 516.277 519.724 516.46 520.867C516.643 522.01 517.107 523.09 517.81 524.01H528.22V519.71H524.22C525.67 518.549 527.009 517.257 528.22 515.85V505.85C526.229 508.65 523.653 510.984 520.67 512.69V512.69Z" fill="#89B340"/>
<path d="M524.2 519.71H528.2V515.85C526.989 517.257 525.65 518.549 524.2 519.71V519.71Z" fill="#89B340"/>
<path d="M531.41 496.05C531.386 492.526 530.272 489.096 528.22 486.23V505.86C530.267 502.997 531.381 499.571 531.41 496.05V496.05Z" fill="#3A3768"/>
<path d="M546.93 524.01V687.92C546.93 698.263 542.821 708.183 535.507 715.497C528.193 722.811 518.273 726.92 507.93 726.92H402.93V710.92H504.16C510.541 710.92 516.661 708.385 521.173 703.873C525.685 699.361 528.22 693.241 528.22 686.86V524.01H546.93Z" fill="#3A3768"/>
<path d="M516.76 517.46C517.406 515.429 518.805 513.722 520.67 512.69C523.652 510.988 526.228 508.657 528.22 505.86V486.23C523.61 479.6 514.5 475.08 504 475.08C488.85 475.08 476.58 484.47 476.58 496.08C476.58 501.54 479.31 506.51 483.77 510.24C485.483 511.65 487.36 512.849 489.36 513.81L489.48 514C490.79 515.27 491.659 516.926 491.959 518.725C492.26 520.525 491.976 522.373 491.15 524H402.93V606C405.463 602.61 408.747 599.854 412.524 597.945C416.301 596.037 420.468 595.029 424.7 595C440.29 595 452.92 608.6 452.92 625.37C452.92 642.14 440.29 655.75 424.7 655.75C420.468 655.721 416.301 654.713 412.524 652.805C408.747 650.897 405.463 648.14 402.93 644.75V710.94H504.16C510.531 710.94 516.641 708.413 521.152 703.914C525.662 699.415 528.204 693.311 528.22 686.94V524.01H517.84C517.132 523.093 516.663 522.014 516.474 520.871C516.286 519.728 516.384 518.556 516.76 517.46V517.46Z" fill="#89B340"/>
<path d="M707.02 269.14C712.6 266.63 716.73 262.4 718.14 256.98C718.311 256.323 718.438 255.655 718.52 254.98C718.769 254.356 718.983 253.719 719.16 253.07C720.57 247.63 719.02 242 715.34 237.19L708.03 265.19L707.02 269.14Z" fill="url(#paint0_linear)"/>
<path d="M875.76 258.63C874.62 251.94 853.5 237.45 853.5 237.45C853.5 237.45 844.17 232.45 839.23 226.67C836.07 222.99 835.08 223.03 834.78 223.53C834.575 223.399 834.342 223.32 834.1 223.3C833.9 223.16 833.71 223.03 833.53 222.88C833.559 222.597 833.499 222.313 833.357 222.067C833.215 221.821 832.999 221.626 832.74 221.51C832.5 221.37 832.26 221.19 832.02 221.02C830.42 218.33 829.85 214.52 829.66 211.2C829.42 207.01 824.66 208.06 823.03 208.53C821.91 206.43 820.82 204.25 819.79 202.07C820.246 201.362 820.624 200.608 820.92 199.82C823.86 193.43 823.22 186.1 824.5 179.34C825.42 174.45 827.34 169.34 826.96 164.58C826.96 164.47 826.96 164.35 826.96 164.23C826.96 164.23 826.96 164.28 826.96 164.3C826.856 163.107 826.583 161.935 826.15 160.82C825.3 158.68 823.82 156.82 823.15 154.61C822.08 151.38 822.76 147.82 821.87 144.55C820.76 140.41 817.26 137.21 813.3 135.38C809.34 133.55 804.93 132.92 800.59 132.38C789.74 131.02 778.21 130.21 768.31 134.77C767.402 135.307 766.365 135.587 765.31 135.58C764.333 135.31 763.407 134.881 762.57 134.31C759.91 132.99 756.57 133.83 754.19 135.59C751.81 137.35 750.19 139.89 748.62 142.35C747.05 144.81 745.33 147.35 742.87 148.96C739.98 150.89 736.16 151.54 733.87 154.14C732.85 155.372 732.204 156.871 732.01 158.46C732.01 158.46 732.01 158.41 732.01 158.39C732 158.579 732 158.77 732.01 158.96C732.01 159.11 732.01 159.27 732.01 159.42C732.01 159.57 732.01 159.67 732.01 159.79C732.01 160.22 732.01 160.64 732.01 161.06C732.33 163.502 732.979 165.891 733.94 168.16C734.402 169.853 735.306 171.392 736.56 172.62C740.04 175.45 745.56 172.78 749.76 174.36C750.13 174.49 750.48 174.66 750.83 174.82C750.83 174.98 750.72 175.14 750.67 175.31C749.771 178.365 749.316 181.534 749.32 184.72C749.32 203.5 764.91 218.72 784.14 218.72C784.86 218.72 785.57 218.72 786.28 218.64C786.38 219.01 786.49 219.39 786.58 219.75C787.65 223.899 787.989 228.204 787.58 232.47L787.37 230.61C786.903 230.386 786.418 230.202 785.92 230.06C784.528 229.596 783.067 229.373 781.6 229.4C776.87 229.34 769.75 231.24 762.15 240.46C762.15 240.46 752.45 245.85 749.6 247.15C749.366 247.291 749.182 247.5 749.07 247.75V247.75C749.07 247.75 736.1 267.34 734.76 274.79C733.42 282.24 731.76 290.79 731.76 290.79C731.76 290.79 728.52 300.45 726.43 304.73C724.34 309.01 722.43 313.09 722.25 314.95C722.07 316.81 723.01 320.89 719.01 323.49C715.01 326.09 714.01 333.15 714.01 333.15C714.01 333.15 712.01 335.03 709.18 337.41H709.08L719.53 297.34L721.4 297.81C721.848 297.921 722.317 297.9 722.754 297.751C723.19 297.603 723.574 297.331 723.86 296.97C724.053 296.725 724.193 296.442 724.27 296.14L726.38 288.02L727.23 284.79L727.4 284.13L728.63 279.42L724.47 278.42L719.6 277.21L705.84 273.74L707.04 269.14L708.04 265.24L714.33 241.1L715.33 237.21C711.33 232.03 704.96 227.82 697.13 225.87C682.03 222.12 667.41 228.22 664.47 239.49C664.296 240.147 664.166 240.815 664.08 241.49C663.827 242.108 663.616 242.743 663.45 243.39C662.941 245.347 662.805 247.382 663.05 249.39C663.09 249.716 663.14 250.05 663.2 250.39C663.8 253.503 665.11 256.436 667.03 258.96C668.381 260.763 669.949 262.392 671.7 263.81L671.77 264.03C672.512 265.243 672.961 266.612 673.08 268.03C673.08 268.23 673.08 268.44 673.08 268.65C672.744 269.253 672.342 269.816 671.88 270.33L579.62 247.4L578.62 251.29L557.84 331.14C560.549 329.057 563.592 327.451 566.84 326.39C568.116 325.967 569.419 325.633 570.74 325.39L571.21 325.31C574.93 324.706 578.733 324.862 582.39 325.77C594.05 328.67 602.11 338.6 603.61 350.28C603.804 351.755 603.888 353.242 603.86 354.73C603.832 356.627 603.631 358.518 603.26 360.38C598.26 375.56 582.9 384.73 567.98 381.02C563.799 379.965 559.918 377.958 556.64 375.157C553.361 372.356 550.774 368.835 549.08 364.87L548.08 368.77L526.64 450.72L608.35 471.04L609.23 467.11H609.36C606.94 464.112 605.185 460.634 604.213 456.907C603.241 453.179 603.073 449.287 603.72 445.49C603.72 445.36 603.8 445.24 603.85 445.11C603.95 444.82 604.06 444.54 604.17 444.26C604.73 442.891 605.399 441.57 606.17 440.31C606.57 439.66 606.99 439.03 607.44 438.42C607.72 438.04 608.01 437.67 608.31 437.31C609.749 435.567 611.391 434.003 613.2 432.65L613.78 432.23C614.44 431.76 615.12 431.31 615.78 430.89C616.19 430.65 616.61 430.41 617.03 430.19C621.87 427.633 627.278 426.343 632.75 426.44C635.38 426.475 637.997 426.81 640.55 427.44C648.434 429.333 655.318 434.12 659.84 440.85C660.438 441.752 660.986 442.687 661.48 443.65C662.953 446.507 663.911 449.6 664.31 452.79C664.623 455.335 664.555 457.914 664.11 460.44C662.166 466.032 658.452 470.838 653.53 474.13L652.53 477.89H652.64L652.49 478L651.49 481.75L670.15 486.39L696.58 385.34C703.71 384.51 707.36 381.34 707.36 380.88C707.36 380.42 715.93 375.67 720.68 374.37C723.04 373.73 725.77 373.27 727.94 372.81C725.38 385.52 722.94 397.81 723.16 398.53C723.23 398.81 723.69 398.37 724.39 397.41C724.321 397.779 724.291 398.154 724.3 398.53C724.3 398.72 724.57 398.58 724.92 398.19L724.87 398.43C724.87 398.43 710.03 427.14 708.87 430.43C707.71 433.72 709.15 442.14 713.72 444.93C714.606 445.49 715.396 446.189 716.06 447L715.52 448.07C713.82 451.52 712.31 455.36 712.58 457.75C712.937 460.774 712.23 463.829 710.58 466.39C710.58 466.39 697.73 506.1 698.02 517.53C698.31 528.96 693.45 554.04 693.45 554.04C693.45 554.04 688.17 570.2 691.31 574.8C694.45 579.4 698.02 599.47 698.02 599.47C698.02 599.47 700.45 604.07 700.3 607.97C700.15 611.87 702.59 618.97 702.59 618.97L710.59 647.81C710.59 647.81 709.73 655.48 712.73 660.91C715.73 666.34 715.44 664.67 714.01 674.15C712.58 683.63 715.73 692.4 720.86 695.15C722.86 696.23 722.96 697.88 722.34 699.49C721.03 698.98 719.94 701.69 719.29 703.88L718.63 704.51L719.07 704.62C718.79 705.62 718.63 706.46 718.63 706.46C718.63 706.46 705.22 717.61 704.36 721.65C703.5 725.69 694.08 727.78 694.08 727.78C694.08 727.78 679.81 731.68 676.08 733.63C675.013 734.115 674.089 734.868 673.398 735.816C672.708 736.764 672.275 737.875 672.14 739.04C671.973 740.876 672.149 742.728 672.66 744.5C674.08 750.21 694.06 750.77 703.66 749.24C713.26 747.71 733.05 742.13 733.05 742.13C733.05 742.13 753.89 740.13 760.05 737.67C766.21 735.21 761.33 728.75 761.33 728.75C761.33 728.75 761.33 728.54 761.33 728.15C761.48 725.82 761.91 717.37 760.43 715.15C759.32 713.43 759.35 709.15 759.51 706.43C763.68 698.93 754.73 676.43 754.73 676.43C754.73 676.43 756.44 654.43 755.3 651.21C754.16 647.99 749.3 620.69 749.3 620.69C749.3 620.69 746.3 608.29 747.45 606.2C748.6 604.11 746.73 598.11 746.73 598.11C746.73 598.11 741.84 591.44 742.28 589.34C742.72 587.24 740.85 583.49 740.85 583.49C740.85 583.49 755.41 561.75 754.12 557.71C752.83 553.67 754.7 547.12 754.7 547.12C754.7 547.12 756.53 544.04 758.7 540.35C761.4 535.83 764.7 530.42 765.78 528.73C767.18 526.58 770.55 517.43 772.43 512.16C773.23 509.92 773.77 508.38 773.77 508.38C773.77 508.38 776.05 549.38 778.05 553.53C780.05 557.68 783.05 590.74 783.05 590.74C784.16 593.674 784.647 596.807 784.48 599.94C784.2 605.09 789.05 627.53 789.05 627.53C789.05 627.53 791.19 643.41 789.76 647.59C788.33 651.77 789.48 682.59 789.48 682.59C789.48 682.59 781.63 688.59 779.63 693.18C777.63 697.77 779.91 710.32 779.91 710.32L780.83 710.75C780.094 712.493 779.548 714.31 779.2 716.17C778.92 718.82 774.63 730.81 775.06 732.48C775.49 734.15 773.21 739.31 772.92 741.95C772.63 744.59 769.07 748.5 768.78 749.9C768.329 751.153 767.805 752.378 767.21 753.57C766.434 755.4 765.815 757.294 765.36 759.23C763.93 765.09 780.91 766.06 780.91 766.06C806.03 770.66 810.6 751.85 810.6 751.85C810.6 751.85 813.74 735.13 814.88 733.85C815.02 733.612 815.109 733.348 815.141 733.074C815.174 732.801 815.15 732.523 815.07 732.26C814.418 729.415 813.186 726.736 811.45 724.39C810.65 723.46 810.6 721.07 810.73 718.93C811.457 718.859 812.176 718.725 812.88 718.53C823.01 715.61 818.88 698.74 818.88 698.74C818.88 698.74 825.73 687.6 825.73 683.28C825.73 678.96 828.16 665.72 828.16 665.72C836.87 650.11 833.44 612.21 834.87 609.14C836.3 606.07 831.87 594.65 828.3 589.49C824.73 584.33 826.16 570.4 828.3 566.36C830.44 562.32 826.16 548.36 826.16 548.36C826.16 548.36 830.3 521.36 830.16 517.14C830.02 512.92 833.73 500.56 833.73 500.56C833.73 500.56 837.44 494.15 836.58 492.2C835.72 490.25 839.43 485.2 838.44 483C837.45 480.8 839.29 473.94 841.15 469.9C842.1 467.83 843.28 462.13 844.15 457.06C844.25 456.5 844.35 455.94 844.44 455.39C848.6 458.02 852.44 459.98 853.8 459.45C856.35 458.45 852.29 445.45 849.51 437.35C849.99 436.99 850.19 436.72 849.99 436.6C848.28 435.48 850.18 430.46 850.18 430.46C860.27 424.52 856.84 420.06 853.61 417.46C850.38 414.86 852.47 407.46 851.51 404.46C850.55 401.46 852.66 387.93 854.37 378.08C854.725 375.939 854.708 373.754 854.32 371.62C856.15 368.83 858.04 365.91 859.7 363.21C865.4 353.92 877.58 309.7 877.58 309.7L877.5 309.47C878.69 307.12 879.58 305.21 880.06 303.94C883.75 294.34 876.9 265.34 875.76 258.63ZM787.08 233.17L787.34 233.05C787.34 233.12 787.34 233.19 787.34 233.26L787.08 233.17ZM731.71 707.52C731.089 707.524 730.473 707.401 729.9 707.16L731.71 707.52Z" fill="url(#paint1_linear)"/>
<path d="M625.99 385.23C634.22 388.35 653.35 388.69 661.85 388.69C664.43 388.69 666.03 388.69 666.03 388.69L671.48 377.59L666.03 368.34C666.03 368.34 661.03 366.96 654.39 365.76C644.59 364 631.18 362.62 624.79 366.58C614.07 373.21 615.27 381.16 625.99 385.23Z" fill="#FEC2BE"/>
<path opacity="0.1" d="M661.84 388.69C664.42 388.69 666.02 388.69 666.02 388.69L671.47 377.59L666.03 368.34C666.03 368.34 661.03 366.96 654.39 365.76C659.78 369.72 672.74 378.34 661.84 388.69Z" fill="#3A3768"/>
<path d="M752.11 252.46L749.71 249.68C749.71 249.68 737.32 269.28 736.02 276.68C734.72 284.08 733.02 292.58 733.02 292.58C733.02 292.58 729.88 302.2 727.84 306.45C725.8 310.7 723.96 314.77 723.78 316.62C723.6 318.47 724.52 322.54 720.63 325.13C716.74 327.72 715.83 334.75 715.83 334.75C715.83 334.75 701.77 348.43 694.37 348.75C686.97 349.07 665.71 352.82 666.45 356.52C667.19 360.22 657.58 362.43 653.69 363.36C649.8 364.29 678.69 375.36 661.83 389.62C661.83 389.62 672.55 391.84 673.66 394.42C674.77 397 686.05 392.95 686.05 392.95C686.05 392.95 688.46 387.21 696.78 386.84C705.1 386.47 709.35 382.77 709.35 382.22C709.35 381.67 717.67 377.04 722.35 375.75C727.03 374.46 733.07 373.9 733.26 372.6C733.45 371.3 761 252.41 761 252.41L752.11 252.46Z" fill="#3A3768"/>
<path opacity="0.05" d="M752.11 252.46L749.71 249.68C749.71 249.68 737.32 269.28 736.02 276.68C734.72 284.08 733.02 292.58 733.02 292.58C733.02 292.58 729.88 302.2 727.84 306.45C725.8 310.7 723.96 314.77 723.78 316.62C723.6 318.47 724.52 322.54 720.63 325.13C716.74 327.72 715.83 334.75 715.83 334.75C715.83 334.75 701.77 348.43 694.37 348.75C686.97 349.07 665.71 352.82 666.45 356.52C667.19 360.22 657.58 362.43 653.69 363.36C649.8 364.29 678.69 375.36 661.83 389.62C661.83 389.62 672.55 391.84 673.66 394.42C674.77 397 686.05 392.95 686.05 392.95C686.05 392.95 688.46 387.21 696.78 386.84C705.1 386.47 709.35 382.77 709.35 382.22C709.35 381.67 717.67 377.04 722.35 375.75C727.03 374.46 733.07 373.9 733.26 372.6C733.45 371.3 761 252.41 761 252.41L752.11 252.46Z" fill="#3A3768"/>
<path d="M780.91 765.61C805.32 770.19 809.76 751.46 809.76 751.46C809.76 751.46 812.81 734.82 813.92 733.57C814.058 733.334 814.146 733.071 814.179 732.8C814.212 732.528 814.188 732.252 814.11 731.99C813.469 729.169 812.273 726.503 810.59 724.15C809.07 722.35 810.31 714.86 810.31 714.86L782.02 707.65C782.02 707.65 779.52 713.33 779.25 715.97C778.98 718.61 774.81 730.53 775.25 732.2C775.69 733.87 773.45 738.99 773.17 741.63C772.89 744.27 769.43 748.15 769.17 749.53C768.735 750.78 768.224 752.002 767.64 753.19C766.889 755.015 766.287 756.898 765.84 758.82C764.41 764.64 780.91 765.61 780.91 765.61Z" fill="#CA8496"/>
<path opacity="0.1" d="M780.91 765.61C805.32 770.19 809.76 751.46 809.76 751.46C809.76 751.46 812.81 734.82 813.92 733.57C814.058 733.334 814.146 733.072 814.179 732.8C814.212 732.528 814.188 732.253 814.11 731.99L808.23 748.83C808.23 748.83 803.38 758.95 785.35 757.43C775.09 756.56 770.04 754.66 767.59 753.18C766.839 755.005 766.237 756.888 765.79 758.81C764.41 764.64 780.91 765.61 780.91 765.61Z" fill="#3A3768"/>
<path opacity="0.1" d="M799.91 739.26C799.91 739.26 793.81 739.4 793.39 734.41L799.91 739.26Z" fill="#3A3768"/>
<path d="M610.15 467.07L614.02 468.06L613.17 471.99L609.58 471.08L610.15 467.07Z" fill="#89B340"/>
<path opacity="0.1" d="M610.15 467.07L614.02 468.06L613.17 471.99L609.58 471.08L610.15 467.07Z" fill="#3A3768"/>
<path d="M725.006 284.09L723.812 288.78L727.853 289.809L729.047 285.118L725.006 284.09Z" fill="#3A3768"/>
<path d="M706.863 279.467L705.669 284.157L719.072 287.569L720.266 282.878L706.863 279.467Z" fill="#3A3768"/>
<path d="M720.258 282.89L719.064 287.58L723.803 288.786L724.997 284.096L720.258 282.89Z" fill="#3A3768"/>
<path d="M707.07 278.86C706.75 279.01 706.44 279.17 706.13 279.3L706.91 279.5L705.71 284.19L699.78 282.68C699.33 281.616 699.151 280.458 699.257 279.308C699.364 278.158 699.753 277.053 700.39 276.09C701.519 274.268 703.312 272.956 705.39 272.43C706.66 272.065 707.9 271.603 709.1 271.05L707.07 278.86Z" fill="#89B340"/>
<path d="M721.22 299.11L723.03 299.58C723.322 299.655 723.626 299.671 723.925 299.628C724.224 299.585 724.511 299.484 724.77 299.33C725.029 299.175 725.255 298.971 725.436 298.73C725.616 298.488 725.746 298.212 725.82 297.92L727.84 289.84L723.84 288.84L721.22 299.11Z" fill="#3A3768"/>
<path d="M719.84 258.95C718.46 264.35 714.45 268.56 709.03 271.05L716.13 243.15C719.73 247.94 721.24 253.55 719.84 258.95Z" fill="#3A3768"/>
<path d="M718.7 298.47C718.113 298.32 717.61 297.942 717.301 297.421C716.992 296.9 716.901 296.278 717.05 295.69L719.11 287.6L705.71 284.19L664.84 444.73C667.812 450.515 668.567 457.187 666.963 463.489C665.359 469.792 661.506 475.29 656.13 478.95L655.18 482.69L673.31 487.34L721.22 299.15L718.7 298.47Z" fill="#3A3768"/>
<path d="M717.05 295.69C716.901 296.277 716.991 296.899 717.301 297.42C717.61 297.942 718.113 298.319 718.7 298.47L721.22 299.11L723.84 288.81L719.11 287.6L717.05 295.69Z" fill="#3A3768"/>
<path d="M700.38 276.09C701.516 274.274 703.306 272.963 705.38 272.43C706.646 272.062 707.883 271.601 709.08 271.05L716.19 243.15C711.74 237.496 705.503 233.52 698.5 231.87C683.83 228.13 669.61 234.2 666.76 245.42C665.41 250.71 666.83 256.2 670.24 260.92C671.546 262.709 673.068 264.332 674.77 265.75L674.84 265.97C675.804 267.528 676.24 269.356 676.085 271.182C675.93 273.008 675.192 274.735 673.98 276.11L584.32 253.28L564.09 332.76C567.371 330.102 571.221 328.238 575.34 327.312C579.46 326.386 583.737 326.423 587.84 327.42C602.95 331.27 611.84 347.57 607.7 363.82C603.56 380.07 588 390.14 572.89 386.34C568.795 385.261 565.006 383.248 561.819 380.46C558.632 377.672 556.134 374.184 554.52 370.27L533.75 451.83L613.17 472.04C610.594 468.77 608.798 464.955 607.917 460.887C607.037 456.818 607.096 452.602 608.09 448.56C611.94 433.46 628.23 424.56 644.49 428.7C648.83 429.762 652.893 431.743 656.403 434.508C659.913 437.273 662.79 440.759 664.84 444.73L705.71 284.19L699.84 282.68C699.38 281.622 699.189 280.467 699.283 279.317C699.377 278.167 699.754 277.059 700.38 276.09V276.09Z" fill="#89B340"/>
<path d="M706.9 279.5L707.07 278.86C706.76 279.01 706.45 279.17 706.13 279.31L706.9 279.5Z" fill="#89B340"/>
<g opacity="0.1">
<path opacity="0.1" d="M725.03 284.12L720.3 282.91L706.91 279.5L707.08 278.86L709.08 271.05C707.88 271.603 706.64 272.065 705.37 272.43C703.292 272.956 701.499 274.268 700.37 276.09C700.076 276.593 699.829 277.122 699.63 277.67C699.825 277.122 700.069 276.593 700.36 276.09C701.496 274.274 703.286 272.963 705.36 272.43C706.626 272.062 707.863 271.601 709.06 271.05L716.17 243.15C711.72 237.496 705.483 233.52 698.48 231.87C683.81 228.13 669.59 234.2 666.74 245.42C665.39 250.71 666.81 256.2 670.22 260.92C671.526 262.709 673.048 264.332 674.75 265.75L674.82 265.97C675.784 267.528 676.22 269.356 676.065 271.182C675.91 273.008 675.172 274.735 673.96 276.11L584.3 253.28L564.07 332.76C567.353 330.099 571.207 328.233 575.33 327.307C579.453 326.381 583.734 326.419 587.84 327.42C602.95 331.27 611.84 347.57 607.7 363.82C603.56 380.07 588 390.14 572.89 386.34C568.795 385.261 565.006 383.248 561.819 380.46C558.632 377.672 556.134 374.184 554.52 370.27L533.75 451.83L613.17 472.04C610.594 468.77 608.798 464.955 607.917 460.887C607.037 456.818 607.096 452.602 608.09 448.56C611.94 433.46 628.23 424.56 644.49 428.7C648.83 429.762 652.893 431.743 656.403 434.508C659.913 437.273 662.79 440.759 664.84 444.73C667.812 450.514 668.567 457.186 666.963 463.488C665.358 469.791 661.506 475.29 656.13 478.95L655.18 482.69L673.31 487.34L721.22 299.15L723.03 299.62C723.322 299.695 723.626 299.711 723.925 299.668C724.224 299.625 724.511 299.524 724.77 299.37C725.029 299.215 725.255 299.011 725.436 298.769C725.616 298.527 725.746 298.252 725.82 297.96L727.84 289.84L729.03 285.15L725.03 284.12ZM706.59 279.12C706.44 279.19 706.29 279.27 706.14 279.33L706.59 279.12ZM699.79 282.71L705.72 284.22L699.79 282.71Z" fill="#3A3768"/>
<path opacity="0.1" d="M719.84 258.949C721.21 253.549 719.7 247.949 716.13 243.149L709.03 271.049C714.48 268.559 718.49 264.339 719.84 258.949Z" fill="#3A3768"/>
</g>
<path d="M725.987 280.224L724.793 284.914L728.835 285.943L730.028 281.252L725.987 280.224Z" fill="#3A3768"/>
<path d="M707.845 275.601L706.651 280.291L720.054 283.702L721.247 279.012L707.845 275.601Z" fill="#3A3768"/>
<path d="M721.243 279.003L720.049 283.693L724.788 284.9L725.982 280.209L721.243 279.003Z" fill="#3A3768"/>
<path d="M708.06 274.98L707.12 275.43L707.89 275.62L706.7 280.34L700.77 278.83C700.314 277.769 700.129 276.61 700.234 275.459C700.339 274.308 700.729 273.202 701.37 272.24C702.503 270.422 704.294 269.111 706.37 268.58C707.637 268.215 708.874 267.754 710.07 267.2L708.06 274.98Z" fill="#89B340"/>
<path d="M722.2 295.24L724.02 295.7C724.314 295.779 724.621 295.799 724.923 295.759C725.225 295.718 725.516 295.617 725.779 295.463C726.042 295.308 726.271 295.103 726.453 294.858C726.635 294.614 726.767 294.336 726.84 294.04L728.9 285.96L724.9 284.96L722.2 295.24Z" fill="#3A3768"/>
<path d="M720.84 255.08C719.47 260.47 715.46 264.68 710.03 267.17L717.14 239.27C720.72 244.06 722.23 249.67 720.84 255.08Z" fill="#3A3768"/>
<path d="M719.69 294.6C719.398 294.525 719.124 294.394 718.884 294.213C718.643 294.033 718.44 293.806 718.287 293.547C718.133 293.288 718.033 293.001 717.99 292.703C717.948 292.405 717.965 292.101 718.04 291.81L720.04 283.73L706.7 280.34L665.84 440.86C668.818 446.642 669.576 453.314 667.971 459.616C666.367 465.919 662.51 471.416 657.13 475.07L656.18 478.81L674.32 483.43L722.22 295.24L719.69 294.6Z" fill="#3A3768"/>
<path d="M718.04 291.81C717.965 292.102 717.948 292.406 717.99 292.704C718.033 293.002 718.133 293.288 718.286 293.548C718.44 293.807 718.643 294.033 718.883 294.214C719.124 294.394 719.398 294.526 719.69 294.6L722.2 295.24L724.84 284.93L720.1 283.73L718.04 291.81Z" fill="#3A3768"/>
<path d="M701.37 272.21C702.503 270.392 704.294 269.081 706.37 268.55C707.637 268.185 708.874 267.723 710.07 267.17L717.17 239.27C712.723 233.618 706.49 229.641 699.49 227.99C684.81 224.26 670.6 230.32 667.74 241.55C666.4 246.83 667.81 252.32 671.23 257.04C672.536 258.833 674.057 260.458 675.76 261.88L675.83 262.09C676.79 263.65 677.225 265.476 677.07 267.301C676.916 269.127 676.179 270.854 674.97 272.23L585.3 249.41L565.04 328.88C568.327 326.215 572.186 324.348 576.315 323.423C580.444 322.498 584.731 322.542 588.84 323.55C603.94 327.39 612.84 343.69 608.7 359.95C604.56 376.21 588.99 386.26 573.84 382.42C569.751 381.334 565.968 379.317 562.787 376.528C559.605 373.739 557.112 370.252 555.5 366.34L534.74 447.9L614.15 468.12C611.576 464.849 609.781 461.034 608.903 456.965C608.024 452.897 608.085 448.681 609.08 444.64C612.92 429.53 629.22 420.64 645.48 424.78C649.829 425.843 653.898 427.829 657.411 430.603C660.924 433.378 663.799 436.876 665.84 440.86L706.7 280.34L700.77 278.83C700.313 277.763 700.129 276.6 700.234 275.444C700.339 274.289 700.729 273.177 701.37 272.21Z" fill="#89B340"/>
<path d="M707.89 275.63L708.05 274.98C707.74 275.13 707.43 275.29 707.12 275.43L707.89 275.63Z" fill="#89B340"/>
<path d="M693.84 575.34C696.84 579.91 700.36 599.89 700.36 599.89C700.36 599.89 702.72 604.46 702.58 608.35C702.44 612.24 704.8 619.35 704.8 619.35L712.57 648.06C712.57 648.06 711.73 655.69 714.65 661.06C717.57 666.43 717.28 664.8 715.9 674.23C714.52 683.66 717.56 692.4 722.55 695.23C727.54 698.06 720.33 704.52 720.33 704.52C720.33 704.52 752.23 713.12 758.89 707.85C765.55 702.58 755.42 676.5 755.42 676.5C755.42 676.5 757.09 654.59 755.98 651.4C754.87 648.21 750.15 621.03 750.15 621.03C750.15 621.03 747.24 608.68 748.35 606.6C749.46 604.52 747.66 598.6 747.66 598.6C747.66 598.6 742.94 591.94 743.36 589.86C743.78 587.78 741.97 584.04 741.97 584.04C741.97 584.04 756.09 562.34 754.84 558.27C753.59 554.2 755.39 547.73 755.39 547.73L759.33 540.99C761.96 536.49 765.14 531.1 766.21 529.42C767.57 527.28 770.85 518.18 772.68 512.93L773.98 509.17C773.98 509.17 776.2 549.95 778.14 554.11C780.08 558.27 782.99 591.11 782.99 591.11C784.069 594.035 784.541 597.148 784.38 600.26C784.1 605.39 788.82 627.72 788.82 627.72C788.82 627.72 790.9 643.53 789.51 647.72C788.12 651.91 789.23 682.54 789.23 682.54C789.23 682.54 781.6 688.54 779.66 693.08C777.72 697.62 779.94 710.08 779.94 710.08C779.94 710.08 802.13 721.18 811.94 718.27C821.75 715.36 817.76 698.57 817.76 698.57C817.76 698.57 824.42 687.48 824.42 683.18C824.42 678.88 826.84 665.75 826.84 665.75C835.3 650.22 831.97 612.5 833.36 609.45C834.75 606.4 830.44 595.02 826.98 589.89C823.52 584.76 824.9 570.89 826.98 566.89C829.06 562.89 824.84 548.98 824.84 548.98C824.84 548.98 828.84 522.07 828.72 517.91C828.6 513.75 832.19 501.41 832.19 501.41C832.19 501.41 835.79 495.03 834.96 493.08C834.13 491.13 837.73 486.15 836.76 483.93C835.79 481.71 837.6 474.93 839.4 470.93C840.32 468.87 841.47 463.19 842.4 458.16C843.25 453.37 843.88 449.16 843.88 449.16L820.99 430.71L763.85 415.71L742.36 408.78L721.41 441.78C719.929 444.187 718.571 446.667 717.34 449.21C715.69 452.64 714.22 456.46 714.48 458.84C714.829 461.844 714.145 464.877 712.54 467.44C712.54 467.44 700.05 506.96 700.33 518.34C700.61 529.72 695.89 554.67 695.89 554.67C695.89 554.67 690.76 570.75 693.84 575.34Z" fill="#CEDDF9"/>
<path d="M778.3 253.84C779.18 253.48 839.51 228.56 831.2 223.61C826.27 220.67 820.2 208.21 816.04 198.46C813.14 191.65 811.17 186.16 811.17 186.16C811.17 186.16 762.75 177.56 780.08 207.24C782.812 211.792 784.87 216.717 786.19 221.86C791.13 242.08 778.7 253.47 778.3 253.84Z" fill="#FEC2BE"/>
<path opacity="0.1" d="M780.08 207.24C782.812 211.792 784.87 216.717 786.19 221.86C792.333 221.432 798.243 219.335 803.282 215.794C808.32 212.254 812.296 207.404 814.78 201.77C815.261 200.69 815.681 199.585 816.04 198.46C813.14 191.65 811.17 186.16 811.17 186.16C811.17 186.16 762.75 177.56 780.08 207.24Z" fill="#3A3768"/>
<path d="M749.98 186.99C749.983 195.551 753.232 203.794 759.073 210.054C764.913 216.315 772.91 220.128 781.451 220.725C789.992 221.322 798.441 218.659 805.096 213.272C811.75 207.885 816.115 200.175 817.309 191.697C818.504 183.219 816.439 174.603 811.532 167.587C806.624 160.571 799.239 155.677 790.866 153.892C782.492 152.106 773.753 153.561 766.411 157.965C759.068 162.368 753.668 169.392 751.3 177.62C750.423 180.666 749.979 183.82 749.98 186.99V186.99Z" fill="#FEC2BE"/>
<path opacity="0.1" d="M717.34 449.2C720.88 452.42 722.24 458.55 722.24 458.55C722.24 458.55 738.89 469.92 737.78 462.71C736.67 455.5 746.38 426.37 746.38 426.37L745.27 466.04C745.27 466.04 798.52 463.54 802.41 459.66C806.3 455.78 829.04 448.34 829.04 448.34C829.04 448.34 836.04 453.93 842.4 458.17C843.25 453.38 843.88 449.17 843.88 449.17L820.99 430.72L763.85 415.72L742.36 408.79L721.41 441.79C719.93 444.19 718.571 446.663 717.34 449.2V449.2Z" fill="#3A3768"/>
<path d="M715.59 446.07C720.03 448.84 721.69 456.33 721.69 456.33C721.69 456.33 738.33 467.7 737.22 460.49C736.11 453.28 745.82 424.15 745.82 424.15L744.71 463.82C744.71 463.82 797.97 461.34 801.84 457.44C805.71 453.54 828.47 446.07 828.47 446.07C828.47 446.07 848.17 461.88 851.77 460.49C855.37 459.1 845.39 432.2 845.39 432.2L835.14 274.65C835.14 274.65 837.91 227.77 833.75 226.1C833.108 225.84 832.516 225.471 832 225.01C829.26 222.55 828.44 217.55 828.2 213.35C827.93 208.35 821.27 210.85 821.27 210.85L825.15 215.85L790.78 236.75L790.48 236.93C789.142 236.225 787.763 235.6 786.35 235.06C783.35 233.89 779.26 232.79 776.61 233.88C775.129 234.633 773.873 235.764 772.97 237.16C771.009 240.106 769.437 243.292 768.29 246.64L755.84 267.71C755.84 267.71 749.46 295.71 749.46 296.84C749.46 297.97 747.52 323.47 745.3 326.24C743.08 329.01 740.86 342.88 741.69 347.04C742.52 351.2 740.3 366.74 740.3 366.74C731.15 374.23 726.44 399.74 726.44 399.74C726.44 399.74 711.98 428.34 710.84 431.64C709.7 434.94 711.15 443.34 715.59 446.07Z" fill="white"/>
<path opacity="0.1" d="M790.78 237.85C794.15 242.85 803.89 249.85 803.89 249.85L832 226.1C829.26 223.64 828.44 218.64 828.2 214.43C827.93 209.43 821.27 211.94 821.27 211.94L822.08 212.94C822.466 213.438 822.743 214.012 822.892 214.625C823.041 215.238 823.059 215.875 822.945 216.495C822.831 217.115 822.587 217.704 822.229 218.224C821.872 218.743 821.409 219.181 820.87 219.51L790.78 237.85Z" fill="#3A3768"/>
<path d="M790.78 236.74C794.15 241.74 803.89 248.74 803.89 248.74L832 224.99C829.26 222.53 828.44 217.53 828.2 213.33C827.93 208.33 821.27 210.83 821.27 210.83L822.08 211.83C822.466 212.328 822.743 212.901 822.892 213.513C823.041 214.125 823.059 214.762 822.944 215.381C822.83 216 822.586 216.589 822.229 217.107C821.871 217.626 821.408 218.063 820.87 218.39L790.78 236.74Z" fill="white"/>
<path opacity="0.1" d="M777.78 240.48C781.41 244.82 786.56 249.75 786.32 247.28C786.08 244.81 789.39 239.36 791.5 236.92C788.204 235.876 784.653 235.975 781.42 237.2C779.936 237.95 778.68 239.083 777.78 240.48V240.48Z" fill="#3A3768"/>
<path d="M777.23 238.81C780.86 243.16 786 248.08 785.76 245.62C785.52 243.16 788.49 239.15 790.6 236.71C787.6 235.54 783.52 234.44 780.86 235.54C779.38 236.287 778.127 237.416 777.23 238.81Z" fill="white"/>
<path d="M786.32 261.89C787.546 261.89 788.54 260.896 788.54 259.67C788.54 258.444 787.546 257.45 786.32 257.45C785.094 257.45 784.1 258.444 784.1 259.67C784.1 260.896 785.094 261.89 786.32 261.89Z" fill="#FF718D"/>
<path d="M769.49 321.8C770.716 321.8 771.71 320.806 771.71 319.58C771.71 318.354 770.716 317.36 769.49 317.36C768.264 317.36 767.27 318.354 767.27 319.58C767.27 320.806 768.264 321.8 769.49 321.8Z" fill="#FF718D"/>
<path d="M750.45 382.46C751.676 382.46 752.67 381.466 752.67 380.24C752.67 379.013 751.676 378.02 750.45 378.02C749.224 378.02 748.23 379.013 748.23 380.24C748.23 381.466 749.224 382.46 750.45 382.46Z" fill="#FF718D"/>
<path d="M749.89 448.47C751.116 448.47 752.11 447.476 752.11 446.25C752.11 445.024 751.116 444.03 749.89 444.03C748.664 444.03 747.67 445.024 747.67 446.25C747.67 447.476 748.664 448.47 749.89 448.47Z" fill="#FF718D"/>
<path d="M776.52 290.18C777.746 290.18 778.74 289.186 778.74 287.96C778.74 286.734 777.746 285.74 776.52 285.74C775.294 285.74 774.3 286.734 774.3 287.96C774.3 289.186 775.294 290.18 776.52 290.18Z" fill="#FF718D"/>
<path d="M761.54 351.76C762.766 351.76 763.76 350.766 763.76 349.54C763.76 348.314 762.766 347.32 761.54 347.32C760.314 347.32 759.32 348.314 759.32 349.54C759.32 350.766 760.314 351.76 761.54 351.76Z" fill="#FF718D"/>
<path d="M746.93 412.23C748.156 412.23 749.15 411.236 749.15 410.01C749.15 408.784 748.156 407.79 746.93 407.79C745.704 407.79 744.71 408.784 744.71 410.01C744.71 411.236 745.704 412.23 746.93 412.23Z" fill="#FF718D"/>
<path d="M750.26 455.87C751.486 455.87 752.48 454.876 752.48 453.65C752.48 452.424 751.486 451.43 750.26 451.43C749.034 451.43 748.04 452.424 748.04 453.65C748.04 454.876 749.034 455.87 750.26 455.87Z" fill="#FF718D"/>
<path opacity="0.1" d="M832 226.34C832 226.34 831.63 223.01 836.43 228.75C841.23 234.49 850.3 239.47 850.3 239.47C850.3 239.47 870.83 253.9 871.94 260.55C873.05 267.2 879.7 296.06 876.19 305.67C872.68 315.28 845.84 361.34 845.84 361.34C845.84 361.34 852.84 369.67 851.21 379.47C849.58 389.27 847.51 402.77 848.43 405.73C849.35 408.69 847.32 416.08 850.43 418.67C853.54 421.26 856.9 425.67 847.1 431.61C847.1 431.61 845.25 436.61 846.91 437.72C848.57 438.83 822.32 450.29 811.91 444.19C801.5 438.09 782.91 389.27 782.51 378.36C782.11 367.45 788.24 331.36 791.57 322.88C794.9 314.4 804.89 281.27 809.14 273.88C813.39 266.49 832 226.34 832 226.34Z" fill="#3A3768"/>
<path d="M833.1 226.34C833.1 226.34 832.73 223.01 837.54 228.75C842.35 234.49 851.41 239.47 851.41 239.47C851.41 239.47 871.94 253.9 873.05 260.55C874.16 267.2 880.81 296.06 877.3 305.67C873.79 315.28 846.97 361.34 846.97 361.34C846.97 361.34 853.97 369.67 852.34 379.47C850.71 389.27 848.64 402.77 849.56 405.73C850.48 408.69 848.45 416.08 851.56 418.67C854.67 421.26 858.03 425.67 848.23 431.61C848.23 431.61 846.38 436.61 848.04 437.72C849.7 438.83 823.45 450.29 813.04 444.19C802.63 438.09 784.04 389.27 783.64 378.36C783.24 367.45 789.37 331.36 792.7 322.88C796.03 314.4 806.02 281.27 810.27 273.88C814.52 266.49 833.1 226.34 833.1 226.34Z" fill="#3A3768"/>
<path opacity="0.1" d="M840.5 257.82C840.5 257.82 824.6 275.39 825.15 287.04C825.15 287.04 824.97 268.17 840.5 257.82Z" fill="#3A3768"/>
<path opacity="0.1" d="M818.5 286.67C818.5 287.22 807.77 327.16 808.33 332.16C808.89 337.16 805.18 351.94 805.18 351.94L800.18 350.65C800.18 350.65 804.06 330.12 804.8 322.54C805.54 314.96 818.5 286.67 818.5 286.67Z" fill="#3A3768"/>
<path opacity="0.1" d="M814.24 400.58C814.61 401.13 839.58 429.42 832.55 431.46C825.52 433.5 814.24 400.58 814.24 400.58Z" fill="#3A3768"/>
<path opacity="0.1" d="M834.77 393.34C835.32 393.71 844.77 413.68 845.86 408.34C846.95 403 837.73 422.95 836.25 408.16L834.77 393.34Z" fill="#3A3768"/>
<path opacity="0.1" d="M786.84 232.67C786.84 232.67 776.53 226.38 763.58 242.47C763.58 242.47 754.15 247.83 751.38 249.13C748.61 250.43 745.46 284.82 745.46 284.82C745.46 284.82 739.36 299.61 741.02 308.12C742.68 316.63 736.22 345.84 736.22 345.84C736.22 345.84 725.48 398.34 725.84 399.84C726.2 401.34 736.75 383.38 736.57 374.5C736.39 365.62 745.44 337.89 746.74 336.22C748.04 334.55 756.91 287.04 756.91 287.04C756.91 287.04 764.12 266.88 768.74 260.22C773.36 253.56 779.1 240.99 781.5 238.77C783.228 237.275 785.156 236.029 787.23 235.07L786.84 232.67Z" fill="#3A3768"/>
<path d="M786.97 232.67C786.97 232.67 775.41 226.38 762.47 242.47C762.47 242.47 753.03 247.83 750.26 249.13C747.49 250.43 744.34 284.82 744.34 284.82C744.34 284.82 738.24 299.61 739.9 308.12C741.56 316.63 735.1 345.84 735.1 345.84C735.1 345.84 724.37 398.36 724.74 399.84C725.11 401.32 735.65 383.38 735.47 374.5C735.29 365.62 744.34 337.89 745.64 336.22C746.94 334.55 755.84 287.04 755.84 287.04C755.84 287.04 763.05 266.88 767.67 260.22C772.29 253.56 778.03 240.99 780.43 238.77C782.83 236.55 787.27 235.07 787.27 235.07L786.97 232.67Z" fill="#3A3768"/>
<path d="M736.21 348.24C736.21 348.24 714.21 333.82 703.57 340.94C692.93 348.06 675.57 358.14 692.66 365.44C709.75 372.74 733.43 371.34 733.43 371.34L736.21 348.24Z" fill="#FEC2BE"/>
<path opacity="0.1" d="M751.51 487.4C754.79 494.4 757.51 529.78 759.33 540.99C761.96 536.49 765.14 531.1 766.21 529.42C767.57 527.28 770.85 518.18 772.68 512.93C770.59 507.85 764.82 493.29 764.82 487.93C764.82 481.41 754.28 473.23 754.28 473.23C754.28 473.23 747.63 479.08 751.51 487.4Z" fill="#3A3768"/>
<path opacity="0.1" d="M822.24 595.99C822.24 595.99 797.83 585.59 790.62 592.99C783.41 600.39 822.24 595.99 822.24 595.99Z" fill="#3A3768"/>
<path opacity="0.1" d="M808.51 600.15C808.51 600.15 833.2 614.02 824.74 616.34C816.28 618.66 808.51 600.15 808.51 600.15Z" fill="#3A3768"/>
<path opacity="0.1" d="M734.73 588.09C734.73 588.09 745.27 588.78 741.25 590.86C737.23 592.94 734.73 588.09 734.73 588.09Z" fill="#3A3768"/>
<path opacity="0.1" d="M721.55 591.28C721.69 591.97 752.2 601.82 746.24 606.28C740.28 610.74 721.55 591.28 721.55 591.28Z" fill="#3A3768"/>
<path opacity="0.1" d="M818.63 676.16C814.06 675.46 788.54 663.67 798.52 672.16C808.5 680.65 818.63 676.16 818.63 676.16Z" fill="#3A3768"/>
<path opacity="0.1" d="M806.01 685.45C806.01 685.45 803.79 694.05 795.33 692.94C786.87 691.83 806.01 685.45 806.01 685.45Z" fill="#3A3768"/>
<path opacity="0.1" d="M813.09 702.92C811.56 702.51 793.39 694.19 792.98 698.07C792.57 701.95 810.31 708.75 811.7 706.67C812.497 705.57 812.978 704.273 813.09 702.92V702.92Z" fill="#3A3768"/>
<path opacity="0.1" d="M754.28 692.94C752.06 692.8 731.28 686.14 727.1 692.1L754.28 692.94Z" fill="#3A3768"/>
<path opacity="0.1" d="M735.42 696.82C735.42 696.82 731.81 693.63 728.21 695.29C724.61 696.95 735.42 696.82 735.42 696.82Z" fill="#3A3768"/>
<path opacity="0.1" d="M781.47 731.22C781.237 732.399 780.666 733.484 779.829 734.345C778.991 735.205 777.922 735.805 776.75 736.07L781.47 731.22Z" fill="#3A3768"/>
<path d="M675.64 744.25C677.03 749.94 696.45 750.49 705.74 748.97C715.03 747.45 734.31 741.89 734.31 741.89C734.31 741.89 754.56 739.95 760.52 737.46C766.48 734.97 761.77 728.58 761.77 728.58C761.77 728.58 761.77 728.36 761.77 727.98C761.91 725.66 762.33 717.25 760.9 714.98C759.24 712.34 760.21 703.74 760.21 703.74C760.21 703.74 731.5 709.29 730.94 706.66C730.38 704.03 725.94 700.28 723.87 699.45C721.8 698.62 720.26 706.38 720.26 706.38C720.26 706.38 707.26 717.48 706.39 721.5C705.52 725.52 696.39 727.6 696.39 727.6C696.39 727.6 682.52 731.48 678.91 733.42C677.863 733.912 676.96 734.668 676.291 735.612C675.621 736.557 675.208 737.658 675.09 738.81C674.939 740.642 675.125 742.485 675.64 744.25V744.25Z" fill="#CA8496"/>
<path opacity="0.1" d="M675.64 744.25C677.03 749.94 696.45 750.49 705.74 748.97C715.03 747.45 734.31 741.89 734.31 741.89C734.31 741.89 754.56 739.95 760.52 737.46C766.48 734.97 761.77 728.58 761.77 728.58C761.77 728.58 761.77 728.36 761.77 727.98L732.77 734.41C732.77 734.41 718.48 740.51 709.33 740.51C701.33 740.51 683.43 743.78 675.13 738.82C674.967 740.646 675.14 742.486 675.64 744.25V744.25Z" fill="#3A3768"/>
<path opacity="0.1" d="M714.89 722.34C714.89 722.34 716.28 731.49 721.83 734.54L714.89 722.34Z" fill="#3A3768"/>
<path opacity="0.1" d="M751.3 177.62C751.828 177.9 752.38 178.131 752.95 178.31C755.55 179.01 758.09 177.25 760.4 175.85C762.71 174.45 765.9 173.41 767.9 175.23C770.51 177.6 768.62 182.66 771.31 184.95C773.01 186.4 775.71 185.9 777.6 187.09C779.49 188.28 780.06 190.89 780.54 193.14C781.02 195.39 781.98 197.96 784.18 198.62C786.38 199.28 788.43 197.83 790.6 197.91C791.05 197.91 791.6 197.98 791.88 197.66C792.078 197.367 792.154 197.008 792.09 196.66C791.819 193.973 792.06 191.258 792.8 188.66C793.69 186.1 795.8 183.79 798.44 183.38C802.33 182.78 805.6 186.19 807.89 189.38C810.297 192.758 812.488 196.285 814.45 199.94C814.574 200.177 814.685 200.421 814.78 200.67C816.659 196.427 817.644 191.842 817.676 187.201C817.707 182.56 816.784 177.963 814.963 173.694C813.142 169.425 810.462 165.577 807.091 162.387C803.719 159.198 799.727 156.737 795.364 155.156C791.001 153.575 786.359 152.908 781.727 153.198C777.095 153.487 772.572 154.726 768.439 156.838C764.307 158.949 760.653 161.888 757.704 165.472C754.756 169.056 752.576 173.208 751.3 177.67V177.62Z" fill="#3A3768"/>
<path d="M807.89 188.82C805.6 185.6 802.33 182.2 798.43 182.82C795.76 183.23 793.7 185.54 792.8 188.09C792.059 190.688 791.821 193.403 792.1 196.09C792.156 196.44 792.077 196.797 791.88 197.09C791.57 197.42 791.05 197.37 790.6 197.35C788.43 197.27 786.27 198.68 784.18 198.06C782.09 197.44 781.02 194.83 780.54 192.58C780.06 190.33 779.54 187.76 777.6 186.53C775.66 185.3 773.01 185.84 771.31 184.38C768.62 182.1 770.52 177.03 767.9 174.66C765.9 172.85 762.71 173.89 760.4 175.29C758.09 176.69 755.55 178.44 752.94 177.74C752.06 177.5 751.27 177 750.41 176.67C746.3 175.1 740.97 177.76 737.59 174.94C736.364 173.713 735.481 172.186 735.03 170.51C734.102 168.245 733.474 165.868 733.16 163.44C732.861 160.986 733.536 158.513 735.04 156.55C737.24 153.96 740.96 153.31 743.77 151.4C746.16 149.76 747.77 147.27 749.35 144.82C750.93 142.37 752.46 139.82 754.77 138.09C757.08 136.36 760.32 135.5 762.9 136.81C763.714 137.378 764.616 137.807 765.57 138.08C766.61 138.094 767.633 137.813 768.52 137.27C778.14 132.74 789.34 133.54 799.89 134.89C804.11 135.43 808.39 136.06 812.24 137.89C816.09 139.72 819.49 142.89 820.57 147.01C821.43 150.27 820.77 153.82 821.81 157.01C822.51 159.19 823.95 161.01 824.81 163.2C827.06 169.05 824.37 175.47 823.23 181.63C821.99 188.36 822.61 195.63 819.75 202.01C819.19 203.26 818.56 205.45 817.15 204.63C816.15 204.02 815.09 200.47 814.49 199.36C812.517 195.71 810.313 192.189 807.89 188.82Z" fill="#9A5E7F"/>
<path opacity="0.1" d="M868.84 297.21L873.84 311.45C873.84 311.45 862 355.45 856.45 364.7C850.9 373.95 842.77 385.78 842.77 385.78C842.77 385.78 829.09 392.63 813.18 389.48C797.27 386.33 750.84 378.02 750.84 378.02C750.84 378.02 746.95 378.76 744.92 375.8C742.89 372.84 732.32 371.34 732.32 371.34C732.32 371.34 720.12 353.59 735.1 346.19C735.1 346.19 736.95 350.26 744.9 347.49C752.85 344.72 755.25 349.7 755.25 349.7C755.25 349.7 768.25 352.29 775.41 351.37C782.57 350.45 800.56 350.07 802.41 348.59C802.879 348.179 803.491 347.969 804.114 348.004C804.737 348.04 805.321 348.319 805.74 348.78C805.74 348.78 810.17 347.12 811.65 345.45C813.13 343.78 815.17 347.3 815.17 347.3C815.17 347.3 817.76 345.82 817.02 343.97C816.28 342.12 819.42 335.1 819.42 335.1C819.42 335.1 820.9 330.47 819.98 326.77C819.06 323.07 824.6 309.77 824.6 309.77C824.672 307.526 824.423 305.284 823.86 303.11C822.93 299.79 830.86 293.11 830.86 293.11C830.86 293.11 838.62 255.38 855.08 267.77C871.54 280.16 868.84 297.21 868.84 297.21Z" fill="#3A3768"/>
<path d="M869.9 297.21L874.9 311.45C874.9 311.45 863.06 355.45 857.51 364.7C851.96 373.95 843.84 385.78 843.84 385.78C843.84 385.78 830.16 392.63 814.25 389.48C798.34 386.33 751.93 378.02 751.93 378.02C751.93 378.02 748.05 378.76 746.02 375.8C743.99 372.84 733.43 371.34 733.43 371.34C733.43 371.34 721.23 353.59 736.21 346.19C736.21 346.19 738.06 350.26 746.01 347.49C753.96 344.72 756.36 349.7 756.36 349.7C756.36 349.7 769.36 352.29 776.52 351.37C783.68 350.45 801.67 350.07 803.52 348.59C803.989 348.179 804.601 347.969 805.224 348.004C805.847 348.04 806.431 348.319 806.85 348.78C806.85 348.78 811.28 347.12 812.76 345.45C814.24 343.78 816.28 347.3 816.28 347.3C816.28 347.3 818.87 345.82 818.13 343.97C817.39 342.12 820.53 335.1 820.53 335.1C820.53 335.1 822.01 330.47 821.08 326.77C820.15 323.07 825.71 309.77 825.71 309.77C825.782 307.526 825.533 305.284 824.97 303.11C824.04 299.79 831.97 293.11 831.97 293.11C831.97 293.11 839.73 255.38 856.19 267.77C872.65 280.16 869.9 297.21 869.9 297.21Z" fill="#3A3768"/>
<path opacity="0.1" d="M749.71 356.75C749.89 358.05 753.96 363.22 752.48 364.15C751 365.08 748.6 364.52 750.82 367.48C753.04 370.44 752.82 374.87 751.37 374.32C749.92 373.77 747.49 367.11 747.49 364.52C747.49 361.93 749.71 356.75 749.71 356.75Z" fill="#3A3768"/>
<path opacity="0.1" d="M804.63 353.79C804.63 353.79 805.74 366.74 814.84 370.44C823.94 374.14 804.63 353.79 804.63 353.79Z" fill="#3A3768"/>
<path opacity="0.1" d="M823.49 349.34C824.04 349.53 836.43 356.19 830.89 360.07C825.35 363.95 823.49 349.34 823.49 349.34Z" fill="#3A3768"/>
<path opacity="0.1" d="M824.23 340.11C824.23 340.11 842.35 343.81 836.23 346.95C830.11 350.09 824.23 340.11 824.23 340.11Z" fill="#3A3768"/>
<g opacity="0.1">
<path opacity="0.1" d="M792.84 184.92C793.74 182.37 795.84 180.06 798.47 179.65C802.37 179.05 805.64 182.46 807.93 185.65C810.337 189.028 812.528 192.555 814.49 196.21C815.09 197.32 816.11 200.86 817.15 201.47C818.56 202.3 819.15 200.11 819.75 198.86C822.61 192.5 821.99 185.21 823.23 178.48C823.96 174.55 825.31 170.48 825.61 166.58C826.04 171.42 824.14 176.51 823.23 181.43C821.99 188.16 822.61 195.43 819.75 201.82C819.19 203.07 818.56 205.26 817.15 204.43C816.15 203.82 815.09 200.28 814.49 199.17C812.528 195.515 810.337 191.988 807.93 188.61C805.64 185.4 802.37 181.99 798.47 182.61C795.8 183.02 793.74 185.33 792.84 187.88C792.394 189.224 792.144 190.625 792.1 192.04C791.902 189.641 792.153 187.227 792.84 184.92V184.92Z" fill="#3A3768"/>
<path opacity="0.1" d="M735.03 167.34C735.478 169.019 736.361 170.551 737.59 171.78C740.97 174.6 746.3 171.94 750.41 173.51C751.27 173.83 752.06 174.34 752.94 174.58C755.55 175.27 758.1 173.52 760.4 172.12C762.7 170.72 765.91 169.69 767.9 171.5C770.52 173.87 768.62 178.93 771.31 181.22C773.01 182.67 775.71 182.22 777.6 183.37C779.49 184.52 780.06 187.16 780.54 189.37C781.02 191.58 781.97 194.19 784.18 194.85C786.39 195.51 788.43 194.07 790.6 194.15C791.05 194.15 791.6 194.22 791.88 193.89C791.945 193.806 791.996 193.711 792.03 193.61C792.03 194.36 792.03 195.1 792.1 195.84C792.155 196.189 792.076 196.546 791.88 196.84C791.57 197.16 791.05 197.11 790.6 197.09C788.43 197.02 786.27 198.42 784.18 197.8C782.09 197.18 781.02 194.58 780.54 192.32C780.06 190.06 779.54 187.5 777.6 186.32C775.66 185.14 773.01 185.62 771.31 184.17C768.62 181.88 770.52 176.81 767.9 174.45C765.9 172.63 762.71 173.67 760.4 175.07C758.09 176.47 755.55 178.22 752.94 177.53C752.06 177.29 751.27 176.78 750.41 176.46C746.3 174.89 740.97 177.55 737.59 174.73C736.363 173.499 735.481 171.968 735.03 170.29C734.103 168.028 733.475 165.654 733.16 163.23C733.09 162.404 733.11 161.572 733.22 160.75C733.568 163.009 734.175 165.22 735.03 167.34V167.34Z" fill="#3A3768"/>
</g>
<path d="M99.78 726.58C99.78 726.58 57.5 724.03 62.48 753.65C62.48 753.65 61.48 758.89 66.24 761.27C66.24 761.27 66.31 759.07 70.58 759.81C72.096 760.064 73.6363 760.141 75.17 760.04C77.2424 759.897 79.2118 759.082 80.78 757.72V757.72C80.78 757.72 92.67 752.81 97.29 733.38C97.29 733.38 100.71 729.15 100.57 728.06L93.44 731.06C93.44 731.06 95.88 736.21 93.96 740.49C93.96 740.49 93.73 731.25 92.36 731.49C92.08 731.49 88.65 733.27 88.65 733.27C88.65 733.27 92.85 742.27 89.65 748.76C89.65 748.76 90.85 737.71 87.31 733.92L82.31 736.85C82.31 736.85 87.21 746.11 83.89 753.67C83.89 753.67 84.74 742.08 81.25 737.57L76.7 741.12C76.7 741.12 81.31 750.24 78.5 756.51C78.5 756.51 78.13 743.02 75.72 742C75.72 742 71.72 745.51 71.13 747C71.13 747 74.28 753.63 72.32 757.13C72.32 757.13 71.12 748.13 70.14 748.13C70.14 748.13 66.14 754.08 65.76 758.13C65.76 758.13 65.93 752.06 69.18 747.52C66.8923 747.954 64.7819 749.049 63.11 750.67C63.11 750.67 63.72 746.46 70.16 746.09C70.16 746.09 73.44 741.57 74.31 741.3C74.31 741.3 67.91 740.76 64.03 742.48C64.03 742.48 67.45 738.48 75.49 740.32L79.98 736.65C79.98 736.65 71.55 735.5 67.98 736.77C67.98 736.77 72.09 733.26 81.19 735.82L86.08 732.89C86.08 732.89 78.9 731.34 74.62 731.89C74.62 731.89 79.13 729.46 87.52 732.1L91.01 730.53C91.01 730.53 85.75 729.53 84.21 729.33C82.67 729.13 82.58 728.74 82.58 728.74C85.915 728.184 89.3388 728.565 92.47 729.84C92.47 729.84 99.9 727.04 99.78 726.58Z" fill="#89B340"/>
<path opacity="0.1" d="M70.66 768.91C87.1844 768.91 100.58 766.645 100.58 763.85C100.58 761.055 87.1844 758.79 70.66 758.79C54.1356 758.79 40.74 761.055 40.74 763.85C40.74 766.645 54.1356 768.91 70.66 768.91Z" fill="#89B340"/>
<path d="M180.84 648.51C180.84 648.51 157 647.07 159.84 663.78C159.697 664.627 159.824 665.498 160.205 666.268C160.586 667.038 161.2 667.669 161.96 668.07C161.96 668.07 161.96 666.83 164.41 667.25C165.266 667.389 166.134 667.432 167 667.38C168.166 667.292 169.274 666.833 170.16 666.07V666.07C170.16 666.07 176.84 663.34 179.48 652.34C179.48 652.34 181.41 649.95 181.33 649.34L177.33 651.05C177.33 651.05 178.7 653.96 177.62 656.37C177.62 656.37 177.49 651.16 176.72 651.28C176.56 651.28 174.63 652.28 174.63 652.28C174.63 652.28 176.99 657.28 175.21 661.01C175.21 661.01 175.88 654.78 173.89 652.64L171.04 654.34C171.04 654.34 173.8 659.56 171.93 663.82C171.93 663.82 172.41 657.28 170.44 654.74L167.88 656.74C167.88 656.74 170.47 661.89 168.88 665.42C168.88 665.42 168.67 657.81 167.31 657.24C166.339 658.063 165.469 659 164.72 660.03C164.72 660.03 166.5 663.77 165.4 665.74C165.4 665.74 164.72 660.67 164.17 660.65C164.17 660.65 161.93 664 161.7 666.31C161.804 664.176 162.466 662.107 163.62 660.31C162.332 660.559 161.144 661.178 160.2 662.09C160.2 662.09 160.55 659.71 164.2 659.51C164.2 659.51 166.04 656.96 166.54 656.81C166.54 656.81 162.93 656.5 160.74 657.47C160.74 657.47 162.67 655.23 167.2 656.25L169.73 654.18C169.73 654.18 164.98 653.53 162.97 654.25C162.97 654.25 165.29 652.25 170.42 653.71L173.17 652.07C171.051 651.6 168.879 651.412 166.71 651.51C166.71 651.51 169.26 650.13 173.98 651.62L175.98 650.74C175.98 650.74 172.98 650.15 172.15 650.06C171.32 649.97 171.23 649.73 171.23 649.73C173.112 649.417 175.043 649.631 176.81 650.35C176.81 650.35 180.95 648.77 180.84 648.51Z" fill="#89B340"/>
<path opacity="0.1" d="M164.46 672.37C173.777 672.37 181.33 671.094 181.33 669.52C181.33 667.946 173.777 666.67 164.46 666.67C155.143 666.67 147.59 667.946 147.59 669.52C147.59 671.094 155.143 672.37 164.46 672.37Z" fill="#89B340"/>
<path d="M40.1901 663.01C40.1901 663.01 11.4101 661.27 14.8401 681.44C14.6659 682.463 14.8198 683.515 15.2796 684.446C15.7394 685.376 16.4816 686.137 17.4001 686.62C17.4001 686.62 17.4001 685.12 20.3501 685.62C21.3837 685.795 22.4345 685.845 23.4801 685.77C24.8921 685.676 26.2342 685.121 27.3001 684.19V684.19C27.3001 684.19 35.3901 680.85 38.5401 667.63C38.5401 667.63 40.8601 664.75 40.7701 664.01L35.8401 666.09C35.8401 666.09 37.4901 669.59 36.1901 672.5C36.1901 672.5 36.0301 666.22 35.1001 666.37C34.9101 666.37 32.5801 667.58 32.5801 667.58C32.5801 667.58 35.4301 673.68 33.2801 678.12C33.2801 678.12 34.0901 670.6 31.6801 668.02L28.2701 670.02C28.2701 670.02 31.6001 676.32 29.3401 681.46C29.3401 681.46 29.9201 673.57 27.5501 670.46L24.4501 672.88C24.4501 672.88 27.5801 679.09 25.6701 683.36C25.6701 683.36 25.4201 674.17 23.7801 673.48C23.7801 673.48 21.0701 675.87 20.6501 676.85C20.6501 676.85 22.8001 681.36 21.4701 683.74C21.4701 683.74 20.6501 677.62 19.9801 677.59C19.9801 677.59 17.2801 681.65 16.9801 684.43C17.1139 681.862 17.9172 679.373 19.3101 677.21C17.75 677.502 16.3103 678.246 15.1701 679.35C15.1701 679.35 15.5901 676.48 19.9801 676.23C19.9801 676.23 22.2101 673.16 22.8001 672.97C22.8001 672.97 18.4501 672.6 15.8001 673.77C15.8001 673.77 18.1301 671.07 23.6001 672.3L26.6601 669.8C26.6601 669.8 20.9201 669.02 18.4901 669.89C18.4901 669.89 21.2901 667.49 27.4901 669.24L30.8201 667.24C30.8201 667.24 25.9301 666.18 23.0201 666.56C23.0201 666.56 26.0901 664.9 31.8001 666.7L34.1801 665.63C34.1801 665.63 30.6001 664.93 29.5501 664.82C28.5001 664.71 28.4401 664.42 28.4401 664.42C30.7086 664.036 33.0393 664.292 35.1701 665.16C35.1701 665.16 40.2801 663.34 40.1901 663.01Z" fill="#89B340"/>
<path opacity="0.1" d="M20.37 691.82C31.62 691.82 40.74 690.28 40.74 688.38C40.74 686.48 31.62 684.94 20.37 684.94C9.11996 684.94 0 686.48 0 688.38C0 690.28 9.11996 691.82 20.37 691.82Z" fill="#89B340"/>
<path opacity="0.1" d="M607.72 818.68C624.244 818.68 637.64 816.415 637.64 813.62C637.64 810.825 624.244 808.56 607.72 808.56C591.196 808.56 577.8 810.825 577.8 813.62C577.8 816.415 591.196 818.68 607.72 818.68Z" fill="#89B340"/>
<path d="M587.63 790.12C587.63 790.12 604.7 789.59 609.84 785.93C614.98 782.27 636.09 777.93 637.37 783.77C638.65 789.61 663.02 812.98 643.75 813.14C624.48 813.3 598.98 810.14 593.84 807.01C588.7 803.88 587.63 790.12 587.63 790.12Z" fill="#A8A8A8"/>
<path opacity="0.2" d="M644.09 811.09C624.82 811.25 599.32 808.09 594.19 804.97C590.28 802.58 588.72 794.04 588.19 790.1H587.62C587.62 790.1 588.7 803.86 593.83 806.99C598.96 810.12 624.47 813.27 643.74 813.12C649.3 813.12 651.22 811.12 651.12 808.12C650.36 809.95 648.23 811.06 644.09 811.09Z" fill="#3A3768"/>
</g>
<defs>
<linearGradient id="paint0_linear" x1="713.35" y1="269.14" x2="713.35" y2="237.21" gradientUnits="userSpaceOnUse">
<stop stop-color="#808080" stop-opacity="0.25"/>
<stop offset="0.54" stop-color="#808080" stop-opacity="0.12"/>
<stop offset="1" stop-color="#808080" stop-opacity="0.1"/>
</linearGradient>
<linearGradient id="paint1_linear" x1="297978" y1="513236" x2="297978" y2="109394" gradientUnits="userSpaceOnUse">
<stop stop-color="#808080" stop-opacity="0.25"/>
<stop offset="0.54" stop-color="#808080" stop-opacity="0.12"/>
<stop offset="1" stop-color="#808080" stop-opacity="0.1"/>
</linearGradient>
<clipPath id="clip0">
<rect width="929.68" height="818.68" fill="white"/>
</clipPath>
</defs>
</svg>
